<?xml version="1.0" encoding="utf-8"?>
<!-- Generator: Adobe Illustrator 26.0.0, SVG Export Plug-In . SVG Version: 6.00 Build 0)  -->
<svg version="1.1" id="Warstwa_1" xmlns="http://www.w3.org/2000/svg" xmlns:xlink="http://www.w3.org/1999/xlink" x="0px" y="0px"
	 viewBox="0 0 175.2 29.3" style="enable-background:new 0 0 175.2 29.3;" xml:space="preserve">
<style type="text/css">
	.st0{fill:none;}
	.st1{enable-background:new    ;}
	.st2{fill:#1D1D1B;}
</style>
<rect x="-15.9" y="-9.9" class="st0" width="200" height="50"/>
<g>
	<g class="st1">
		<path class="st2" d="M5.1,27.1c-0.4-0.1-0.9-0.3-1.4-0.4c0-0.1,0-0.2-0.1-0.3c-0.1-0.1-0.3-0.2-0.5-0.2c-0.4-0.2-0.7-0.5-1-0.8
			c-0.3-0.3-0.5-0.6-0.7-0.9c-0.2-0.3-0.3-0.6-0.4-0.8c-0.2-0.4-0.2-0.6-0.2-0.6c0-0.1,0.1-0.2,0.4-0.3c0.3-0.2,0.4-0.2,0.6-0.2
			c0.1,0.1,0.3,0.3,0.5,0.7c0.3,0.5,0.8,0.9,1.6,1.2c0.7,0.3,1.6,0.4,2.5,0.4s1.8-0.2,2.6-0.6c0.9-0.3,1.4-0.7,1.6-1.1
			c0.2-0.4,0.1-0.9-0.3-1.5c-0.1-0.2-0.2-0.3-0.2-0.5C10,21.1,9.9,21,9.7,20.8s-0.5-0.5-1-0.9c-0.3-0.2-0.7-0.3-1-0.5
			c-0.3-0.1-0.6-0.3-0.9-0.5c-0.4-0.2-0.8-0.5-1.3-0.8c-0.5-0.4-1-0.8-1.5-1.2s-0.8-0.9-1-1.2c-0.4-0.3-0.7-0.8-0.8-1.5
			s-0.3-1.3-0.2-2s0.2-1.3,0.5-1.9c0.1-0.3,0.4-0.7,0.7-1.2c0.3-0.5,0.7-1,1.1-1.5c0.4-0.5,0.8-0.9,1.2-1.3c0.4-0.4,0.7-0.7,1-0.8
			C6.7,5.4,7,5.1,7.4,4.7c0-0.1,0.1-0.2,0.2-0.2C7.7,4.5,8,4.3,8.4,4.2C8.8,4,9.2,3.7,9.7,3.3c1.6-0.7,2.8-1.3,3.8-1.6
			c1-0.4,1.8-0.5,2.4-0.5c0.6,0,1.1,0.2,1.6,0.4c0.5,0.2,0.9,0.6,1.2,1c0.3,0.4,0.5,0.9,0.6,1.4c0.2,0.6,0.1,1.2-0.1,1.9
			c-0.3,0.7-0.6,1.4-1.1,2.1c-0.5,0.6-1,1.1-1.6,1.5c-0.7,0.3-1.1,0.4-1.3,0.4c-0.2,0-0.3-0.3-0.3-0.7c0-0.2,0.1-0.4,0.2-0.7
			C15.1,8.1,15.4,7.6,16,7c0.7-1.1,1.2-2,1.4-2.6c0.2-0.7,0-1-0.5-1.1c-0.1,0-0.4,0-0.8,0c-0.4,0-0.8,0.1-1.2,0.2
			c-0.4,0.1-0.8,0.2-1.1,0.2c-0.3,0.1-0.5,0.1-0.5,0.2c0,0.1,0,0.2-0.1,0.2c0,0-0.2,0.1-0.6,0.3c-0.3,0.2-0.8,0.4-1.3,0.7
			c-0.5,0.3-1,0.6-1.5,0.9C9.5,6.3,9.1,6.6,8.7,6.8S8.2,7.1,8.2,7.2c0,0.3-0.3,0.5-0.8,0.7C6.9,8.2,6.5,8.6,6.1,9.1
			c-0.4,0.5-0.8,1.2-1.3,2c-0.4,0.5-0.7,1.1-0.8,1.7c-0.2,0.6-0.2,1.1,0,1.5c0.1,0.4,0.5,0.9,1.1,1.4c0.6,0.6,1.4,1.1,2.3,1.7
			c0.8,0.4,1.5,0.9,2.1,1.3c0.6,0.4,1.1,0.8,1.6,1.2c0.4,0.4,0.7,0.7,0.8,1c0.3,0.4,0.5,0.8,0.6,1.2c0.1,0.4,0.2,0.8,0.2,1.2
			s0,0.7-0.1,1c-0.2,0.4-0.5,0.8-0.9,1.2c-0.4,0.4-0.8,0.6-1,0.6c-0.3,0.1-0.4,0.2-0.6,0.2c-0.1,0.1-0.3,0.2-0.4,0.2
			c-0.2,0.1-0.5,0.2-1,0.3c-0.5,0.1-1.1,0.2-1.7,0.2C6.3,27.2,5.7,27.2,5.1,27.1z"/>
		<path class="st2" d="M17.1,24.3c-0.2-0.2-0.3-0.4-0.4-0.7c-0.1-0.3-0.1-0.6-0.1-0.8c0-0.3,0.1-0.5,0.2-0.7c0-0.2,0-0.3,0.1-0.4
			c0.1-0.1,0.1-0.2,0.1-0.3s0-0.3,0.1-0.5s0.1-0.5,0.2-0.7c0.2-0.4,0.3-0.8,0.5-1.3c0.2-0.5,0.4-1,0.5-1.6c0.2-0.5,0.3-1,0.4-1.3
			c0.1-0.4,0.2-0.6,0.2-0.7c0-0.3,0.2-0.4,0.6-0.5c0.3-0.1,0.5-0.1,0.6,0s0.3,0.3,0.6,0.7c0.2,0.2,0.3,0.5,0.2,0.8s-0.2,0.8-0.5,1.4
			c-0.1,0.2-0.2,0.5-0.3,0.8c-0.1,0.3-0.2,0.7-0.3,0.9c-0.1,0.2-0.2,0.5-0.3,0.8c-0.1,0.3-0.2,0.7-0.3,1c0,0.1-0.1,0.3-0.1,0.5
			c0,0.2-0.1,0.5-0.2,0.7c-0.1,0.2-0.2,0.5-0.3,0.6c-0.2,1-0.4,1.5-0.6,1.7C17.8,24.9,17.5,24.7,17.1,24.3z M20.5,10.1
			c-0.1-0.1-0.2-0.3-0.3-0.5c-0.1-0.2-0.2-0.4-0.2-0.6c0-0.2,0-0.3,0.1-0.3c0.2,0,0.4-0.2,0.7-0.6c0.3-0.4,0.4-0.7,0.3-1
			c0-0.1,0-0.2,0.1-0.3c0.1-0.1,0.2-0.1,0.2-0.2c0.3-0.2,0.6-0.2,0.8-0.1c0.3,0.1,0.5,0.4,0.8,0.8c0.2,0.4,0.3,0.8,0.2,1.1
			c-0.1,0.3-0.4,0.7-0.8,1.2c-0.3,0.5-0.7,0.7-1,0.8C21.2,10.4,20.9,10.3,20.5,10.1z"/>
		<path class="st2" d="M24.4,25.4c-0.4,0.1-0.8,0-1.1-0.3c-0.3-0.3-0.4-0.8-0.5-1.4s0-1.4,0.2-2.2c0.1-0.3,0.2-0.6,0.3-0.8
			c0.1-0.3,0.1-0.5,0.1-0.6c0-0.2,0.1-0.6,0.3-1c0.1-0.5,0.3-0.9,0.5-1.4s0.3-0.9,0.5-1.3s0.3-0.6,0.3-0.7c0.1,0,0.2-0.1,0.2-0.2
			c0.1-0.2,0.1-0.3,0.1-0.5c0-0.2,0-0.4,0.1-0.6c0.1-0.2,0.2-0.4,0.3-0.5c0-0.1,0-0.3,0.1-0.4c0.1-0.2,0.1-0.3,0.1-0.4
			c0-0.1,0-0.2,0.1-0.3c0.1-0.1,0.1-0.2,0.1-0.3c0.2-0.3,0.4-0.8,0.6-1.5c0.3-0.7,0.6-1.4,0.9-2.2c0.3-0.8,0.6-1.6,0.9-2.4
			s0.5-1.5,0.7-2s0.3-0.9,0.3-1c0-0.2,0-0.3,0.1-0.4c0.1-0.1,0.2-0.1,0.4-0.1c0.1-0.1,0.2-0.1,0.3-0.1c0.1,0,0.2,0,0.3,0
			c0.2,0.2,0.4,0.4,0.6,0.6c0.2,0.2,0.3,0.3,0.3,0.6c0,0.2,0.1,0.5,0.1,0.7c0,0.3,0,0.6-0.1,0.8c-0.1,0.2-0.2,0.6-0.4,1
			c-0.2,0.4-0.5,1.1-1,2.1c-0.2,0.5-0.4,0.9-0.6,1.3C29.1,10,29,10.2,29,10.3c0,0.1,0,0.2-0.1,0.4c-0.1,0.2-0.2,0.4-0.3,0.7
			c-0.1,0.2-0.2,0.5-0.4,0.8c-0.2,0.4-0.3,0.7-0.5,1.2s-0.3,0.8-0.4,1c-0.1,0.3-0.2,0.5-0.2,0.5c0,0.1,0,0.2,0,0.3
			c0,0.1-0.1,0.2-0.2,0.3c-0.1,0-0.2,0.1-0.2,0.4c0,0.2-0.2,0.9-0.6,1.9c-0.4,1.3-0.7,2.5-1,3.5c-0.3,1.1-0.5,1.9-0.5,2.6
			c0,0.6,0,0.9,0,1.1S24.5,25.3,24.4,25.4z"/>
		<path class="st2" d="M35.4,24.2c-0.5,0.4-1.1,0.7-1.7,0.7c-0.6,0.1-1.3,0-1.9-0.3c-0.6-0.3-1.1-0.7-1.5-1.2
			c-0.4-0.5-0.7-1.1-0.8-1.8s-0.1-1.5,0-2.6c0.1-0.9,0.4-1.8,0.9-2.7c0.5-0.9,1.1-1.7,1.9-2.5c0.7-0.7,1.5-1.2,2.2-1.5
			c0.3-0.2,0.6-0.3,0.9-0.3s0.6,0,1.1,0.1c0.5,0.1,0.9,0.2,1.2,0.3c0.3,0.1,0.5,0.3,0.6,0.6c0.4,0.4,0.6,0.7,0.7,1
			c0.1,0.3,0.2,0.7,0.2,1c-0.1,0.5-0.4,1.1-1,1.9c-0.6,0.7-1.4,1.3-2.3,1.8c-0.5,0.2-1.1,0.2-1.7,0.2c-0.6,0-1.1-0.2-1.5-0.5
			c-0.4-0.2-0.7-0.2-0.9,0.1s-0.3,0.8-0.4,1.8c-0.1,0.9,0,1.5,0.2,1.9c0.2,0.4,0.5,0.6,0.9,0.7c0.5,0.1,0.8,0.2,1.1,0.2
			c0.3,0,0.6-0.1,1-0.3c0.4-0.2,0.6-0.4,0.7-0.4c0.1,0,0.2-0.1,0.2-0.1c0.1-0.1,0.2-0.2,0.4-0.4c0.2-0.2,0.3-0.3,0.4-0.4
			c0.1-0.1,0.2-0.1,0.3-0.1c0.1,0,0.2,0.1,0.3,0.2c0.1,0.1,0.2,0.2,0.3,0.2c0.2,0,0.3,0.1,0.2,0.4c-0.1,0.3-0.4,0.6-0.8,1
			C36.3,23.5,35.9,23.8,35.4,24.2z M35.3,16.7c0.3-0.1,0.5-0.3,0.8-0.5s0.5-0.5,0.7-0.7c0.2-0.3,0.3-0.5,0.3-0.7
			c0-0.3-0.2-0.6-0.5-0.8c-0.3-0.2-0.8-0.2-1.4-0.1c-0.3,0.1-0.5,0.2-0.9,0.5c-0.3,0.3-0.6,0.6-0.9,0.9c-0.3,0.3-0.5,0.6-0.7,0.9
			s-0.2,0.4-0.2,0.5c0.1,0.1,0.3,0.2,0.6,0.3s0.7,0.1,1.1,0.1S35.1,16.9,35.3,16.7z"/>
		<path class="st2" d="M53,23.8c-0.5,0-0.9-0.1-1.2-0.3c-0.3-0.2-0.6-0.5-0.8-1c-0.1-0.3-0.2-0.7-0.2-1.1c-0.1-0.4-0.1-0.8-0.1-1.2
			c0-0.4,0-0.6,0.1-0.7c0.1-0.1,0.1-0.3,0.1-0.5s0-0.5,0-0.8c0-0.5-0.1-0.7-0.3-0.8c-0.2-0.1-0.5,0-0.9,0.2c-0.4,0.3-1,0.6-1.6,1
			s-1.4,0.9-2.1,1.4c-0.7,0.5-1.4,1-2.1,1.6c-0.5,0.6-0.8,1-0.9,1.3c-0.1,0.3-0.3,0.4-0.4,0.4c-0.2,0.1-0.3,0.1-0.5,0
			c-0.1-0.1-0.3-0.2-0.5-0.4c-0.2-0.2-0.3-0.4-0.5-0.5c-0.2-0.2-0.3-0.3-0.3-0.4c0-0.1,0-0.4,0.1-0.7c0.1-0.4,0.2-0.7,0.3-1.1
			c0.1-0.4,0.2-0.6,0.2-0.7c0.1,0,0.2-0.1,0.3-0.4c0.1-0.2,0.2-0.5,0.4-0.8c0-0.3,0.2-0.7,0.4-1.1c0.2-0.5,0.4-0.9,0.5-1.3
			c0.3-0.6,0.6-1,0.7-1.4c0.1-0.4,0.2-0.8,0.3-1.4c0-0.1,0-0.2,0.1-0.3c0.1-0.1,0.2-0.1,0.2-0.1c0.2-0.2,0.4-0.2,0.7-0.2
			c0.3,0.1,0.5,0.3,0.7,0.5c0.4,0.6,0.6,1.1,0.5,1.7c-0.1,0.6-0.5,1.4-1.1,2.5c-0.2,0.4-0.3,0.7-0.4,0.9c-0.1,0.2-0.1,0.4-0.1,0.5
			c0.5-0.3,0.9-0.6,1.2-0.8c0.3-0.2,0.6-0.4,0.8-0.5c0.1-0.1,0.4-0.3,0.8-0.6c0.4-0.3,0.9-0.6,1.3-0.9c0.5-0.3,0.8-0.5,1.1-0.5
			c0.2-0.1,0.4-0.2,0.6-0.3c0.2-0.1,0.4-0.1,0.5-0.1c0.2,0,0.4,0.1,0.7,0.3s0.6,0.4,0.8,0.7c0.3,0.3,0.4,0.5,0.5,0.7
			c0,0.1,0,0.2,0,0.3c0,0.1,0,0.2,0.1,0.3c0.1,0.3,0.1,0.7,0.2,1.2c0,0.5,0,1-0.1,1.4c0,0.4-0.1,0.7-0.2,0.7c0,0.1,0.1,0.2,0.2,0.2
			c0,0.1,0,0.2,0,0.2c-0.1,0-0.2,0.1-0.1,0.3c0,0.2,0.1,0.4,0.2,0.6c0.1,0.2,0.3,0.4,0.4,0.6c0.3,0.3,0.4,0.5,0.3,0.8
			S53.4,23.7,53,23.8z"/>
		<path class="st2" d="M59.1,25.1c-0.3,0-0.5-0.2-0.8-0.4c-0.3-0.2-0.5-0.5-0.7-0.8c-0.2-0.3-0.3-0.6-0.4-0.8c0,0-0.1-0.1-0.2-0.3
			c-0.1-0.1-0.1-0.4-0.2-0.9c0-0.5,0-1.2,0.1-1.8s0.2-1.2,0.2-1.6c0.1-0.4,0.3-0.9,0.5-1.5c0.2-0.6,0.4-1.2,0.6-1.7l0.9-2l-1.4-0.4
			c-0.2,0-0.3-0.1-0.4-0.3c-0.1-0.1-0.2-0.3-0.2-0.4c0-0.2,0.1-0.4,0.3-0.7c0.2-0.3,0.4-0.4,0.5-0.4c0.1,0,0.3,0,0.6,0
			c0.3,0,0.6,0,0.9,0c0.3,0,0.5,0,0.6-0.1c0.1,0,0.2-0.1,0.3-0.2c0.1-0.1,0.2-0.2,0.2-0.4c0.1-0.3,0.2-0.5,0.3-0.7
			c0.1-0.2,0.2-0.5,0.4-0.8c0.2-0.3,0.3-0.6,0.4-0.8c0.1-0.2,0.3-0.5,0.5-0.9c0.1-0.2,0.2-0.4,0.4-0.6c0.1-0.2,0.3-0.4,0.5-0.6
			c0.2-0.2,0.4-0.3,0.6-0.3s0.5,0.2,0.9,0.5c0.2,0.2,0.3,0.4,0.3,0.5c0,0.1-0.1,0.3-0.3,0.7c-0.2,0.4-0.4,0.8-0.6,1.2
			s-0.5,0.8-0.7,1.2c-0.4,0.5-0.4,0.8-0.2,0.9c0.2,0.1,0.9,0,2-0.1c0.7-0.1,1.2-0.1,1.5,0.1c0.3,0.2,0.5,0.5,0.5,0.9
			c0.1,0.6,0,0.9-0.2,1c-0.2,0.1-0.7,0.2-1.6,0.2C64.8,13,64.4,13,64,13c-0.4,0-0.7,0-0.9,0c-0.3,0-0.5,0-0.6,0
			c-0.1,0-0.2,0-0.4,0.1c-0.2,0-0.3,0.1-0.4,0.2c-0.1,0.1-0.2,0.3-0.3,0.4c-0.1,0.1-0.2,0.3-0.4,0.7s-0.4,0.8-0.7,1.3
			c-0.3,1-0.6,2-0.8,2.9c-0.2,1-0.4,1.9-0.6,2.8c-0.1,0.6-0.1,1,0,1.2c0.1,0.2,0.4,0.4,0.9,0.4c0.3,0,0.7,0,1.2,0
			c0.6,0,1-0.1,1.3-0.2c0.3-0.1,0.5-0.2,0.8-0.4c0.3-0.1,0.5-0.3,0.8-0.4c0.2-0.1,0.5-0.3,0.9-0.6c0.1-0.2,0.2-0.2,0.4-0.2
			c0.1,0.1,0.3,0.2,0.3,0.5c0,0.3-0.1,0.6-0.2,0.9c-0.1,0.3-0.5,0.7-1.3,1.1c-1,0.7-2,1-2.9,1.2C60.5,25.3,59.7,25.3,59.1,25.1z"/>
		<path class="st2" d="M77.8,27.5c-0.1,0.2-0.3,0.4-0.5,0.4c-0.2,0-0.6-0.1-1-0.4c-0.3-0.3-0.5-0.5-0.5-0.6c-0.1-0.2,0-0.4,0.1-0.8
			c0.2-0.4,0.4-1,0.8-1.9c0.1-0.6,0.3-1.1,0.5-1.7c0.2-0.6,0.4-1,0.5-1.2c0.1-0.3,0.3-0.9,0.6-1.6c0.3-0.8,0.6-1.6,1-2.5
			c0.4-0.9,0.8-1.8,1.1-2.6c0.3-0.8,0.6-1.5,0.8-1.9c0.4-0.9,0.8-1.9,1.2-2.9c0.4-1,1-2.3,1.7-3.9c0.1-0.2,0.1-0.5,0.2-0.7
			c0-0.3-0.2-0.4-0.6-0.4c-0.2-0.3-0.4-0.5-0.4-0.8s0.1-0.5,0.4-0.6l1.8-0.7c1.1-0.3,2.2-0.3,3.4-0.2c1.2,0.1,2.2,0.4,3.3,1
			c1.1,0.7,1.9,1.3,2.4,2s0.7,1.3,0.7,2s-0.1,1.3-0.4,2c-0.2,0.5-0.5,1-1.1,1.6c-0.5,0.6-1.1,1.2-1.8,1.8c-0.7,0.6-1.4,1.1-2.1,1.6
			c-0.7,0.5-1.4,0.8-2,1.1c-0.6,0.3-1.2,0.5-1.8,0.7s-1.3,0.4-2,0.6c-0.4,0.1-0.8,0.1-1.3,0.1s-0.9,0-1.2-0.1L81,18.3
			c-0.2,0.8-0.6,2.1-1.2,3.7C79.2,23.7,78.5,25.5,77.8,27.5z M91.7,27.9c-0.2,0.1-0.4,0.1-0.6,0.1s-0.6-0.2-1.2-0.6
			c-1-0.6-2.1-1.3-3.1-2.2c-1-0.9-2.2-2-3.5-3.5c-0.5-0.6-0.9-1.1-1.2-1.6c-0.3-0.5-0.7-1.2-1.1-2.1l-0.5-1.9l0.9-0.5l1.3,1.3
			c0.4,0.8,0.9,1.6,1.5,2.3c0.6,0.7,1.1,1.4,1.7,2c0.4,0.5,1,1.1,1.7,1.8c0.7,0.7,1.5,1.3,2.3,2c0.8,0.6,1.6,1.1,2.2,1.4
			c0.1,0.1,0.2,0.3,0.1,0.5s-0.1,0.4-0.2,0.6C91.9,27.7,91.8,27.9,91.7,27.9z M82.7,14.9c0.5,0,1.2-0.2,1.9-0.4
			c0.7-0.2,1.4-0.5,2.2-0.8c0.7-0.3,1.4-0.7,2.2-1.2c0.8-0.5,1.5-1,2.1-1.5c0.7-0.6,1.2-1.1,1.6-1.8C93,8.6,93.2,8,93.1,7.4
			c0-0.3-0.1-0.6-0.4-0.9c-0.2-0.3-0.5-0.6-0.8-0.9S91.3,5.1,91,5.1c-0.9-0.2-1.7-0.4-2.3-0.5c-0.6-0.1-1.1,0-1.4,0.1
			c-0.3,0.2-0.5,0.5-0.7,0.9c0,0.1-0.1,0.3-0.3,0.7c-0.2,0.4-0.4,0.9-0.7,1.5c-0.3,0.6-0.5,1.2-0.8,1.9c-0.7,1.4-1.2,2.4-1.5,3.1
			c-0.4,0.7-0.6,1.2-0.7,1.5C82.6,14.6,82.6,14.8,82.7,14.9z"/>
		<path class="st2" d="M103.6,25.3c-0.2-0.2-0.5-0.6-0.7-1c-0.2-0.4-0.4-0.9-0.6-1.4c0-0.2-0.1-0.4-0.1-0.8c0-0.3,0-0.6,0-0.7
			c-0.1,0.2-0.2,0.3-0.3,0.5c-0.2,0.2-0.3,0.3-0.4,0.4c-0.1,0.1-0.3,0.3-0.6,0.5c-0.3,0.3-0.7,0.5-1,0.6c-0.8,0.5-1.4,0.8-1.9,0.8
			c-0.5,0-1-0.2-1.4-0.8c-0.4-0.3-0.6-0.6-0.8-1s-0.2-0.9,0-1.5c0-0.8,0.2-1.6,0.4-2.4c0.2-0.8,0.6-1.8,1.2-3.1
			c0.5-1,0.9-1.7,1.1-2.1s0.4-0.7,0.5-0.8c0.4-0.1,0.6-0.1,0.9,0c0.2,0.1,0.4,0.4,0.4,0.7c0.1,0.2,0.1,0.6-0.1,1.2
			c-0.2,0.6-0.5,1.2-0.9,2.1c-0.3,0.8-0.6,1.6-0.9,2.4c-0.3,0.8-0.4,1.5-0.5,2c0,0.6,0.1,0.9,0.4,1c0.2,0.1,0.6,0.1,1.1-0.1
			c0.5-0.2,1.1-0.7,1.8-1.4c0.7-0.7,1.3-1.9,1.9-3.4c0.2-0.5,0.3-0.9,0.4-1.2c0.1-0.4,0.2-0.8,0.2-1.2c0-0.3,0-0.5,0.1-0.8
			c0.1-0.2,0.3-0.4,0.5-0.6c0.1-0.1,0.2-0.2,0.4-0.3c0.2-0.1,0.3-0.1,0.3,0l0.6,0c0.1,0,0.2,0,0.2,0.2c0,0.1,0.1,0.2,0.2,0.3
			c0.3,0.2,0.3,0.7,0.2,1.4c-0.1,0.7-0.4,1.7-1,2.9c-0.4,1-0.7,1.7-0.9,2.2s-0.2,1-0.3,1.4c0,0.4,0.1,0.8,0.2,1.2s0.4,0.7,0.8,1
			c0.3,0.2,0.4,0.4,0.4,0.6s0,0.5,0,0.7c0,0.2-0.2,0.4-0.4,0.5c-0.2,0.1-0.5,0.2-0.8,0.2S103.8,25.5,103.6,25.3z"/>
		<path class="st2" d="M120.5,23.8c-0.5,0-0.9-0.1-1.2-0.3c-0.3-0.2-0.6-0.5-0.8-1c-0.1-0.3-0.2-0.7-0.2-1.1
			c-0.1-0.4-0.1-0.8-0.1-1.2c0-0.4,0-0.6,0.1-0.7c0.1-0.1,0.1-0.3,0.1-0.5s0-0.5,0-0.8c0-0.5-0.1-0.7-0.3-0.8
			c-0.2-0.1-0.5,0-0.9,0.2c-0.4,0.3-1,0.6-1.6,1s-1.4,0.9-2.1,1.4c-0.7,0.5-1.4,1-2.1,1.6c-0.5,0.6-0.8,1-0.9,1.3
			c-0.1,0.3-0.3,0.4-0.4,0.4c-0.2,0.1-0.3,0.1-0.5,0c-0.1-0.1-0.3-0.2-0.5-0.4c-0.2-0.2-0.3-0.4-0.5-0.5c-0.2-0.2-0.3-0.3-0.3-0.4
			c0-0.1,0-0.4,0.1-0.7c0.1-0.4,0.2-0.7,0.3-1.1c0.1-0.4,0.2-0.6,0.2-0.7c0.1,0,0.2-0.1,0.3-0.4c0.1-0.2,0.2-0.5,0.4-0.8
			c0-0.3,0.2-0.7,0.4-1.1c0.2-0.5,0.4-0.9,0.5-1.3c0.3-0.6,0.6-1,0.7-1.4c0.1-0.4,0.2-0.8,0.3-1.4c0-0.1,0-0.2,0.1-0.3
			c0.1-0.1,0.2-0.1,0.2-0.1c0.2-0.2,0.4-0.2,0.7-0.2c0.3,0.1,0.5,0.3,0.7,0.5c0.4,0.6,0.6,1.1,0.5,1.7c-0.1,0.6-0.5,1.4-1.1,2.5
			c-0.2,0.4-0.3,0.7-0.4,0.9c-0.1,0.2-0.1,0.4-0.1,0.5c0.5-0.3,0.9-0.6,1.2-0.8c0.3-0.2,0.6-0.4,0.8-0.5c0.1-0.1,0.4-0.3,0.8-0.6
			c0.4-0.3,0.9-0.6,1.3-0.9c0.5-0.3,0.8-0.5,1.1-0.5c0.2-0.1,0.4-0.2,0.6-0.3c0.2-0.1,0.4-0.1,0.5-0.1c0.2,0,0.4,0.1,0.7,0.3
			s0.6,0.4,0.8,0.7c0.3,0.3,0.4,0.5,0.5,0.7c0,0.1,0,0.2,0,0.3c0,0.1,0,0.2,0.1,0.3c0.1,0.3,0.1,0.7,0.2,1.2c0,0.5,0,1-0.1,1.4
			c0,0.4-0.1,0.7-0.2,0.7c0,0.1,0.1,0.2,0.2,0.2c0,0.1,0,0.2,0,0.2c-0.1,0-0.2,0.1-0.1,0.3c0,0.2,0.1,0.4,0.2,0.6
			c0.1,0.2,0.3,0.4,0.4,0.6c0.3,0.3,0.4,0.5,0.3,0.8S120.9,23.7,120.5,23.8z"/>
		<path class="st2" d="M136.3,23.8c-0.5,0-0.9-0.1-1.2-0.3c-0.3-0.2-0.6-0.5-0.8-1c-0.1-0.3-0.2-0.7-0.2-1.1
			c-0.1-0.4-0.1-0.8-0.1-1.2c0-0.4,0-0.6,0.1-0.7c0.1-0.1,0.1-0.3,0.1-0.5c0-0.2,0-0.5,0-0.8c0-0.5-0.1-0.7-0.3-0.8
			c-0.2-0.1-0.5,0-0.9,0.2c-0.4,0.3-1,0.6-1.6,1s-1.4,0.9-2.1,1.4c-0.7,0.5-1.4,1-2.1,1.6c-0.5,0.6-0.8,1-0.9,1.3
			c-0.1,0.3-0.3,0.4-0.4,0.4c-0.2,0.1-0.3,0.1-0.5,0s-0.3-0.2-0.5-0.4c-0.2-0.2-0.3-0.4-0.5-0.5s-0.3-0.3-0.3-0.4
			c0-0.1,0-0.4,0.1-0.7c0.1-0.4,0.2-0.7,0.3-1.1c0.1-0.4,0.2-0.6,0.2-0.7c0.1,0,0.2-0.1,0.3-0.4c0.1-0.2,0.2-0.5,0.4-0.8
			c0-0.3,0.2-0.7,0.4-1.1c0.2-0.5,0.4-0.9,0.5-1.3c0.3-0.6,0.6-1,0.7-1.4c0.1-0.4,0.2-0.8,0.3-1.4c0-0.1,0-0.2,0.1-0.3
			c0.1-0.1,0.2-0.1,0.2-0.1c0.2-0.2,0.4-0.2,0.7-0.2c0.3,0.1,0.5,0.3,0.7,0.5c0.4,0.6,0.6,1.1,0.5,1.7c-0.1,0.6-0.5,1.4-1.1,2.5
			c-0.2,0.4-0.3,0.7-0.4,0.9c-0.1,0.2-0.1,0.4-0.1,0.5c0.5-0.3,0.9-0.6,1.2-0.8c0.3-0.2,0.6-0.4,0.8-0.5c0.1-0.1,0.4-0.3,0.8-0.6
			c0.4-0.3,0.9-0.6,1.3-0.9c0.5-0.3,0.8-0.5,1.1-0.5c0.2-0.1,0.4-0.2,0.6-0.3c0.2-0.1,0.4-0.1,0.5-0.1c0.2,0,0.4,0.1,0.7,0.3
			c0.3,0.2,0.6,0.4,0.8,0.7s0.4,0.5,0.5,0.7c0,0.1,0,0.2,0,0.3c0,0.1,0,0.2,0.1,0.3c0.1,0.3,0.1,0.7,0.2,1.2c0,0.5,0,1-0.1,1.4
			s-0.1,0.7-0.2,0.7c0,0.1,0.1,0.2,0.2,0.2c0,0.1,0,0.2,0,0.2c-0.1,0-0.2,0.1-0.1,0.3s0.1,0.4,0.2,0.6s0.3,0.4,0.4,0.6
			c0.3,0.3,0.4,0.5,0.4,0.8C136.9,23.5,136.7,23.7,136.3,23.8z"/>
		<path class="st2" d="M145.8,24.2c-0.5,0.4-1.1,0.7-1.7,0.7c-0.6,0.1-1.3,0-1.9-0.3s-1.1-0.7-1.5-1.2c-0.4-0.5-0.7-1.1-0.8-1.8
			c-0.1-0.7-0.1-1.5,0-2.6c0.1-0.9,0.4-1.8,0.9-2.7c0.5-0.9,1.1-1.7,1.9-2.5c0.7-0.7,1.5-1.2,2.2-1.5c0.4-0.2,0.6-0.3,0.9-0.3
			s0.6,0,1.1,0.1c0.5,0.1,0.9,0.2,1.2,0.3c0.3,0.1,0.5,0.3,0.6,0.6c0.3,0.4,0.6,0.7,0.7,1c0.1,0.3,0.2,0.7,0.2,1
			c-0.1,0.5-0.4,1.1-1,1.9c-0.6,0.7-1.4,1.3-2.3,1.8c-0.5,0.2-1.1,0.2-1.7,0.2c-0.6,0-1.1-0.2-1.5-0.5c-0.4-0.2-0.7-0.2-0.9,0.1
			c-0.1,0.2-0.3,0.8-0.4,1.8c-0.1,0.9,0,1.5,0.2,1.9s0.5,0.6,0.9,0.7c0.5,0.1,0.8,0.2,1.1,0.2c0.3,0,0.6-0.1,1-0.3
			c0.4-0.2,0.6-0.4,0.7-0.4c0.1,0,0.2-0.1,0.2-0.1c0.1-0.1,0.2-0.2,0.4-0.4c0.2-0.2,0.3-0.3,0.4-0.4c0.1-0.1,0.2-0.1,0.3-0.1
			c0.1,0,0.2,0.1,0.3,0.2c0.1,0.1,0.2,0.2,0.3,0.2c0.2,0,0.3,0.1,0.2,0.4c-0.1,0.3-0.4,0.6-0.8,1C146.8,23.5,146.3,23.8,145.8,24.2z
			 M145.8,16.7c0.3-0.1,0.5-0.3,0.8-0.5c0.3-0.2,0.5-0.5,0.7-0.7c0.2-0.3,0.3-0.5,0.3-0.7c0-0.3-0.2-0.6-0.5-0.8
			c-0.3-0.2-0.8-0.2-1.4-0.1c-0.3,0.1-0.5,0.2-0.9,0.5c-0.3,0.3-0.6,0.6-0.9,0.9c-0.3,0.3-0.5,0.6-0.7,0.9c-0.2,0.3-0.2,0.4-0.2,0.5
			c0.1,0.1,0.3,0.2,0.6,0.3c0.3,0.1,0.7,0.1,1.1,0.1C145.2,16.9,145.5,16.9,145.8,16.7z"/>
		<path class="st2" d="M151.7,24.2c-0.2-0.2-0.4-0.3-0.4-0.5s-0.1-0.5,0-0.9c0.1-0.7,0.2-1.2,0.3-1.7c0.1-0.5,0.3-1.1,0.4-1.7
			c0-0.3,0.2-0.8,0.4-1.4s0.5-1.4,0.8-2.2c0.3-0.8,0.7-1.5,1-2.3c0.3-0.7,0.6-1.2,0.8-1.6c0.2-0.1,0.4-0.2,0.7-0.2
			c0.3,0,0.5,0.1,0.7,0.3c0.3,0.2,0.3,0.6,0.1,1.1c-0.2,0.5-0.5,1.3-1.1,2.5c-0.3,0.6-0.5,1.1-0.6,1.4c-0.1,0.3-0.2,0.5-0.2,0.6
			c0,0.1,0.1,0,0.3-0.1c0.1-0.3,0.4-0.6,0.8-0.9c0.4-0.3,0.8-0.7,1.2-1c0.4-0.3,0.8-0.6,1.2-0.9c0.4-0.3,0.6-0.4,0.8-0.5
			c0.2-0.1,0.4-0.2,0.6-0.3c0.2-0.1,0.4-0.1,0.5-0.2c0.5-0.3,1.1-0.4,1.6-0.3c0.6,0.1,0.9,0.3,1,0.6c0,0.2,0.2,0.4,0.4,0.6
			c0.1,0,0.2,0.1,0.2,0.2c0,0.2-0.1,0.3-0.4,0.3s-0.6,0.1-0.9,0.1c-0.3,0-0.6,0.1-0.8,0.2c-0.2,0.1-0.5,0.2-0.8,0.3
			c-0.9,0.5-1.7,1-2.5,1.5c-0.8,0.5-1.6,1.1-2.3,2c-0.2,0.2-0.3,0.4-0.5,0.7s-0.3,0.5-0.5,0.8c-0.1,0.1-0.2,0.4-0.4,0.8
			c-0.1,0.4-0.2,0.8-0.3,1.1c-0.1,0.4-0.1,0.6-0.1,0.6c-0.1,0.4-0.3,0.8-0.5,1c-0.3,0.4-0.5,0.6-0.7,0.6S152.1,24.5,151.7,24.2z"/>
		<path class="st2" d="M165.7,25.5c-0.4-0.2-0.9-0.4-1.3-0.8c-0.4-0.3-0.7-0.6-0.8-0.8c0-0.2,0-0.4,0.1-0.4c0.1-0.1,0.3-0.1,0.6-0.1
			c0.3,0,0.9,0.1,1.7,0.2c0.3,0,0.6,0,1-0.1c0.4,0,0.8-0.1,1.2-0.2c0.4-0.1,0.6-0.2,0.6-0.3c0.1,0,0.1,0,0.1-0.1
			c-0.1-0.1-0.2-0.2-0.2-0.3c-0.1,0-0.2,0-0.3-0.1c-0.1-0.1-0.2-0.1-0.3-0.1c0-0.1-0.1-0.3-0.3-0.4s-0.4-0.3-0.7-0.4
			c-0.5-0.4-1-0.8-1.3-1.1s-0.5-0.6-0.4-0.7c0-0.1,0-0.2,0-0.2c-0.2,0-0.3-0.2-0.5-0.7c-0.2-0.5-0.3-0.9-0.3-1.3
			c0-0.3,0.1-0.6,0.2-1.1c0.2-0.4,0.4-0.9,0.7-1.3c0.3-0.5,0.6-0.9,0.9-1.2c0.4-0.4,0.9-0.8,1.6-1.3s1.3-0.9,1.9-1.2
			c0.6-0.4,1.1-0.6,1.6-0.7c0.4-0.2,0.8-0.2,1.2-0.2c0.4,0,0.7,0.1,1,0.2c0.2,0.1,0.4,0.3,0.6,0.5c0.2,0.2,0.4,0.4,0.5,0.7
			c0.2,0.2,0.2,0.4,0.3,0.6c0,0.3,0,0.6-0.1,0.9c0,0.3-0.1,0.6-0.2,0.9c-0.1,0.3-0.2,0.4-0.4,0.4c-0.1,0-0.2,0.1-0.2,0.2
			c0,0.2-0.2,0.5-0.5,0.8c-0.4,0.3-0.8,0.5-1.2,0.5c-0.3,0.1-0.5-0.1-0.6-0.4c-0.1-0.1-0.1-0.2-0.1-0.2s-0.1-0.1-0.2-0.1
			c-0.1-0.1-0.2-0.3-0.2-0.5c0-0.1,0.1-0.2,0.2-0.4c0.1,0,0.3-0.1,0.5-0.4c0.2-0.3,0.4-0.6,0.5-0.9c0.2-0.3,0.2-0.5,0.2-0.6
			c0-0.1,0-0.2-0.1-0.2c0,0-0.1,0-0.3,0c-0.3,0.1-0.7,0.3-1.2,0.6s-0.9,0.5-1.3,0.7s-0.7,0.4-0.9,0.6c-0.1,0.2-0.2,0.3-0.2,0.3
			c0,0-0.1,0.1-0.2,0.1c0-0.1-0.1-0.1-0.2,0.1c-0.2,0.2-0.3,0.4-0.6,0.7c-0.2,0.3-0.4,0.6-0.6,0.9s-0.3,0.5-0.4,0.6
			c0,0-0.1,0.2-0.2,0.4c-0.1,0.2-0.1,0.4-0.1,0.6c-0.1,0.3-0.1,0.5,0,0.6c0.1,0.1,0.4,0.3,0.8,0.6c0.8,0.6,1.5,1.1,1.9,1.5
			c0.5,0.4,0.8,0.7,1,1c0.2,0.3,0.4,0.5,0.4,0.7c0.4,0.7,0.5,1.2,0.4,1.6c-0.2,0.4-0.6,0.7-1.2,1c-0.2,0.1-0.6,0.2-1.2,0.3
			c-0.5,0.1-1.1,0.1-1.6,0.1C166.5,25.6,166.1,25.6,165.7,25.5z"/>
	</g>
</g>
</svg>
